<svg xmlns="http://www.w3.org/2000/svg" viewBox="0 0 100 100">
  <defs>
    <linearGradient id="grad" x1="0%" y1="0%" x2="100%" y2="100%">
      <stop offset="0%" style="stop-color:#10b981;stop-opacity:1" />
      <stop offset="100%" style="stop-color:#059669;stop-opacity:1" />
    </linearGradient>
  </defs>

  <!-- Background circle -->
  <circle cx="50" cy="50" r="48" fill="url(#grad)"/>

  <!-- Trophy base -->
  <rect x="42" y="70" width="16" height="8" fill="#fbbf24" rx="2"/>
  <rect x="38" y="78" width="24" height="4" fill="#fbbf24" rx="1"/>

  <!-- Trophy cup -->
  <path d="M 35 35 Q 35 50 42 58 L 42 70 L 58 70 L 58 58 Q 65 50 65 35 Z" fill="#fbbf24" stroke="#f59e0b" stroke-width="1"/>

  <!-- Trophy handles -->
  <path d="M 35 35 Q 28 35 28 42 Q 28 48 35 48" fill="none" stroke="#fbbf24" stroke-width="3"/>
  <path d="M 65 35 Q 72 35 72 42 Q 72 48 65 48" fill="none" stroke="#fbbf24" stroke-width="3"/>

  <!-- Trophy rim -->
  <ellipse cx="50" cy="35" rx="15" ry="3" fill="#fcd34d"/>

  <!-- Star on trophy -->
  <path d="M 50 42 L 52 48 L 58 48 L 53 52 L 55 58 L 50 54 L 45 58 L 47 52 L 42 48 L 48 48 Z" fill="#f59e0b" opacity="0.6"/>
</svg>
